<?xml version="1.0" encoding="iso-8859-1"?>
<!-- Uploaded to: SVG Repo, www.svgrepo.com, Generator: SVG Repo Mixer Tools -->
<svg version="1.1" id="Layer_1" xmlns="http://www.w3.org/2000/svg" xmlns:xlink="http://www.w3.org/1999/xlink" 
	 viewBox="0 0 512 512" xml:space="preserve">
<g>
	<rect x="48.786" y="14.455" style="fill:#FEE187;" width="414.433" height="112.053"/>
	<rect x="48.786" y="249.013" style="fill:#FEE187;" width="132.825" height="124.266"/>
</g>
<path style="fill:#FFC61B;" d="M63.24,140.962h399.974c7.982,0,14.455-6.471,14.455-14.455V14.455
	C477.669,6.471,471.196,0,463.214,0H48.786c-7.982,0-14.455,6.471-14.455,14.455v112.052v122.506v1.761v122.506v124.266l0,0
	c0,7.983,6.473,14.455,14.455,14.455h414.429c7.982,0,14.455-6.471,14.455-14.455V208.207c0-7.983-6.473-14.455-14.455-14.455
	s-14.455,6.471-14.455,14.455V483.09H196.064v-48.565c0-7.983-6.473-14.455-14.455-14.455c-7.982,0-14.455,6.471-14.455,14.455
	v48.564H63.24v-95.357h118.369c7.982,0,14.455-6.471,14.455-14.455V250.772v-1.761v-60.373c0-7.983-6.473-14.455-14.455-14.455
	c-7.982,0-14.455,6.471-14.455,14.455v45.919H63.24V140.962z M63.24,28.91H448.76v83.142H63.24V28.91z M63.24,358.824v-93.596
	h103.914v93.596L63.24,358.824L63.24,358.824z"/>
</svg>